<svg width="30" height="31" viewBox="0 0 30 31" fill="none" xmlns="http://www.w3.org/2000/svg">
<path d="M15 30.542C12.9447 30.542 11.007 30.146 9.187 29.354C7.36767 28.5627 5.77767 27.4863 4.417 26.125C3.05567 24.7643 1.97933 23.181 1.188 21.375C0.396 19.5697 0 17.6253 0 15.542C0 13.4587 0.396 11.5073 1.188 9.68799C1.97933 7.86866 3.05567 6.28533 4.417 4.93799C5.77767 3.59066 7.361 2.52133 9.167 1.72999C10.9723 0.937992 12.9167 0.541992 15 0.541992C17.0833 0.541992 19.0347 0.937992 20.854 1.72999C22.6733 2.52133 24.2567 3.59066 25.604 4.93799C26.9513 6.28533 28.0207 7.86866 28.812 9.68799C29.604 11.5073 30 13.4587 30 15.542C30 17.5973 29.604 19.5347 28.812 21.354C28.0207 23.174 26.9513 24.7643 25.604 26.125C24.2567 27.4863 22.6733 28.5627 20.854 29.354C19.0347 30.146 17.0833 30.542 15 30.542ZM15 29.125C18.778 29.125 21.9863 27.8057 24.625 25.167C27.2637 22.5283 28.583 19.32 28.583 15.542C28.583 11.764 27.2637 8.55566 24.625 5.91699C21.9863 3.27833 18.778 1.95899 15 1.95899C11.222 1.95899 8.01367 3.27833 5.375 5.91699C2.73633 8.55566 1.417 11.764 1.417 15.542C1.417 19.32 2.73633 22.5283 5.375 25.167C8.01367 27.8057 11.222 29.125 15 29.125Z" fill="white"/>
<path d="M12.112 25L11 24.0555L20.7753 15.5L11 6.97084L12.112 6L23 15.5L12.112 25Z" fill="white"/>
</svg>
